# xmcd
#
# Track frame offsets:
#	150
#	32445
#	60574
#	86254
#	109766
#	137848
#	168512
#	203604
#	237559
#	263328
#	292948
#	316242
#
# Disc length: 4641 seconds
#
# Revision: 0
# Processed by: cddbd v1.4PL0 Copyright (c) Steve Scherf et al.
# Submitted via: audiograbber 1.81.02
#
DISCID=97121f0c
DTITLE=The Sugarhill Gang - The Best Of The Sugarhill Gang
DYEAR=1995
DGENRE=Hip-Hop
TTITLE0=Rapper's Delight
TTITLE1=Apache
TTITLE2=Showdown
TTITLE3=Passion Play
TTITLE4=Hot Hot Summer Day
TTITLE5=The Lover In You
TTITLE6=Rapper's Reprise (Jam, Jam)
TTITLE7=8th Wonder
TTITLE8=The Word Is Out
TTITLE9=Kick It Live From 9 to 5
TTITLE10=Livin' In The Fast Lane
TTITLE11=Rapper's Delight (Remix)
EXTD=
EXTT0=
EXTT1=
EXTT2=
EXTT3=
EXTT4=
EXTT5=
EXTT6=
EXTT7=
EXTT8=
EXTT9=
EXTT10=
EXTT11=
PLAYORDER=
